<svg xmlns="http://www.w3.org/2000/svg" width="1200" height="260" viewBox="0 0 1200 260" fill="none">
  <rect width="1200" height="260" rx="20" fill="#0B1220"/>
  <rect x="40" y="65" width="220" height="130" rx="16" fill="#111827" stroke="#334155"/>
  <text x="150" y="115" text-anchor="middle" fill="#93C5FD" font-family="Inter, Arial, sans-serif" font-size="18" font-weight="700">Bitcoin</text>
  <text x="150" y="145" text-anchor="middle" fill="#CBD5E1" font-family="Inter, Arial, sans-serif" font-size="14">Digital Capital</text>

  <rect x="340" y="65" width="220" height="130" rx="16" fill="#111827" stroke="#334155"/>
  <text x="450" y="115" text-anchor="middle" fill="#93C5FD" font-family="Inter, Arial, sans-serif" font-size="18" font-weight="700">STRC</text>
  <text x="450" y="145" text-anchor="middle" fill="#CBD5E1" font-family="Inter, Arial, sans-serif" font-size="14">Digital Credit</text>

  <rect x="640" y="65" width="220" height="130" rx="16" fill="#111827" stroke="#334155"/>
  <text x="750" y="115" text-anchor="middle" fill="#34D399" font-family="Inter, Arial, sans-serif" font-size="18" font-weight="700">BaseYield</text>
  <text x="750" y="145" text-anchor="middle" fill="#CBD5E1" font-family="Inter, Arial, sans-serif" font-size="14">Programmable Layer-3</text>

  <rect x="940" y="40" width="220" height="80" rx="14" fill="#111827" stroke="#334155"/>
  <text x="1050" y="84" text-anchor="middle" fill="#A7F3D0" font-family="Inter, Arial, sans-serif" font-size="16" font-weight="700">Money Mode</text>
  <rect x="940" y="140" width="220" height="80" rx="14" fill="#111827" stroke="#334155"/>
  <text x="1050" y="184" text-anchor="middle" fill="#FCD34D" font-family="Inter, Arial, sans-serif" font-size="16" font-weight="700">Yield Mode</text>

  <path d="M260 130H340" stroke="#60A5FA" stroke-width="3" marker-end="url(#arrow)"/>
  <path d="M560 130H640" stroke="#60A5FA" stroke-width="3" marker-end="url(#arrow)"/>
  <path d="M860 95H940" stroke="#34D399" stroke-width="3" marker-end="url(#arrow)"/>
  <path d="M860 165H940" stroke="#F59E0B" stroke-width="3" marker-end="url(#arrow)"/>

  <defs>
    <marker id="arrow" markerWidth="8" markerHeight="8" refX="7" refY="4" orient="auto">
      <path d="M0 0L8 4L0 8V0Z" fill="#94A3B8"/>
    </marker>
  </defs>
</svg>
