<svg xmlns="http://www.w3.org/2000/svg" width="420" height="90" viewBox="0 0 420 90" fill="none">
  <rect width="420" height="90" rx="14" fill="#020617"/>
  <rect x="14" y="14" width="62" height="62" rx="12" fill="#0F172A"/>
  <path d="M31 31h17.5c7 0 11.5 3.2 11.5 8.9 0 4-2.4 6.8-6.2 8 4.6.9 7.2 4 7.2 8.5 0 6.1-5 9.6-12.9 9.6H31V31zm11.4 15h5.3c3.1 0 5-1.3 5-3.8 0-2.4-2-3.8-5-3.8h-5.3V46zm0 20h6.5c3.5 0 5.8-1.4 5.8-4.5 0-3-2.2-4.5-5.8-4.5h-6.5V66z" fill="url(#grad)"/>
  <path d="M105 30h15l13 35 13-35h15l-22 49h-13l-21-49z" fill="#E5E7EB"/>
  <path d="M179 30h16v49h-16V30z" fill="#E5E7EB"/>
  <path d="M207 30h38v11h-22v8h20v10h-20v9h23v11h-39V30z" fill="#E5E7EB"/>
  <path d="M255 30h16l10 31 10-31h16l-18 49h-15l-19-49z" fill="#E5E7EB"/>
  <path d="M314 30h16l19 49h-16l-3-8h-18l-3 8h-15l20-49zm13 31-6-16-6 16h12z" fill="#E5E7EB"/>
  <path d="M355 30h16v37h21v12h-37V30z" fill="#E5E7EB"/>
  <defs>
    <linearGradient id="grad" x1="31" y1="31" x2="62" y2="74" gradientUnits="userSpaceOnUse">
      <stop stop-color="#60A5FA"/>
      <stop offset="1" stop-color="#34D399"/>
    </linearGradient>
  </defs>
</svg>
