<svg xmlns="http://www.w3.org/2000/svg" viewBox="0 0 64 64">
  <defs>
    <linearGradient id="g" x1="0%" y1="0%" x2="100%" y2="100%">
      <stop offset="0%" stop-color="#60a5fa" />
      <stop offset="100%" stop-color="#34d399" />
    </linearGradient>
  </defs>
  <rect width="64" height="64" rx="14" fill="#020617" />
  <path d="M16 16h18c8 0 14 4 14 11 0 5-3 9-8 10 6 1 10 5 10 11 0 8-7 12-16 12H16V16zm12 18h6c4 0 7-2 7-5 0-3-3-5-7-5h-6v10zm0 18h8c5 0 8-2 8-6 0-4-3-6-8-6h-8v12z" fill="url(#g)" />
</svg>
